<svg xmlns="http://www.w3.org/2000/svg" viewBox="0 0 1470 745" preserveAspectRatio="xMidYMid" style="shape-rendering: auto; display: block; background: rgb(255, 255, 255);" width="1470" height="745" xmlns:xlink="http://www.w3.org/1999/xlink"><g><defs>
  <linearGradient gradientUnits="userSpaceOnUse" y2="0" y1="0" x2="1470" x1="710" id="ldbk-photon-w7hskvu9pc-lg">
    <stop offset="0" stop-color="#1d3f72"></stop>
    <stop offset="1" stop-color="#34ffef"></stop>
  </linearGradient>
  <mask id="ldbk-photon-w7hskvu9pc-mask">
  <g><path fill="#fff" d="M1770 -0.5 L713.4858035126072 -0.5 A15 15 0 0 1 713.4858035126072 30.5 L1770 30.5">
  <animateTransform begin="0s" values="29.617406974695655;0;29.617406974695655" keySplines="0.5 0 0.5 1;0.5 0 0.5 1" calcMode="spline" keyTimes="0;0.5;1" repeatCount="indefinite" dur="3.3333333333333335s" type="translate" attributeName="transform"></animateTransform>
</path><path fill="#000" d="M1528.6471051491087 -0.5 L1557.2942102982174 -0.5 A15 15 0 0 1 1557.2942102982174 30.5 L1528.6471051491087 30.5 A15 15 0 0 1 1528.6471051491087 -0.5">
  <animateTransform begin="0s" values="0;-1294.4754355696102" keyTimes="0;1" repeatCount="indefinite" dur="10s" type="translate" attributeName="transform"></animateTransform>
  <animate begin="0s" values="1;1;0" keyTimes="0;0.3;1" repeatCount="indefinite" dur="10s" attributeName="opacity"></animate>
</path><path fill="#fff" d="M1770 29.5 L657.5568230686401 29.5 A15 15 0 0 0 657.5568230686401 60.5 L1770 60.5">
  <animateTransform begin="-1.2s" values="-41.59083311582366;0;-41.59083311582366" keySplines="0.5 0 0.5 1;0.5 0 0.5 1" calcMode="spline" keyTimes="0;0.5;1" repeatCount="indefinite" dur="5s" type="translate" attributeName="transform"></animateTransform>
</path><path fill="#fff" d="M790.1446879802195 29.5 L828.8746004360662 29.5 A15 15 0 0 1 828.8746004360662 60.5 L790.1446879802195 60.5 A15 15 0 0 1 790.1446879802195 29.5">
  <animateTransform begin="-1.2s" values="0;0" keyTimes="0;1" repeatCount="indefinite" dur="10s" type="translate" attributeName="transform"></animateTransform>
  <animate begin="-1.2s" values="1;1;0" keyTimes="0;0.3;1" repeatCount="indefinite" dur="10s" attributeName="opacity"></animate>
</path><path fill="#fff" d="M1770 59.5 L711.4073355706144 59.5 A15 15 0 0 1 711.4073355706144 90.5 L1770 90.5">
  <animateTransform begin="-2.4s" values="27.900632684737676;0;27.900632684737676" keySplines="0.5 0 0.5 1;0.5 0 0.5 1" calcMode="spline" keyTimes="0;0.5;1" repeatCount="indefinite" dur="10s" type="translate" attributeName="transform"></animateTransform>
</path><path fill="#000" d="M1532.9412847756766 59.5 L1565.8825695513533 59.5 A15 15 0 0 1 1565.8825695513533 90.5 L1532.9412847756766 90.5 A15 15 0 0 1 1532.9412847756766 59.5">
  <animateTransform begin="-2.4s" values="0;-1823.3905490241668" keyTimes="0;1" repeatCount="indefinite" dur="10s" type="translate" attributeName="transform"></animateTransform>
  <animate begin="-2.4s" values="1;1;0" keyTimes="0;0.3;1" repeatCount="indefinite" dur="10s" attributeName="opacity"></animate>
</path><path fill="#fff" d="M1770 89.5 L672.305954046911 89.5 A15 15 0 0 0 672.305954046911 120.5 L1770 120.5">
  <animateTransform begin="-3.5999999999999996s" values="-47.852915954985065;0;-47.852915954985065" keySplines="0.5 0 0.5 1;0.5 0 0.5 1" calcMode="spline" keyTimes="0;0.5;1" repeatCount="indefinite" dur="3.3333333333333335s" type="translate" attributeName="transform"></animateTransform>
</path><path fill="#fff" d="M760.4218337384068 89.5 L780.1574326358952 89.5 A15 15 0 0 1 780.1574326358952 120.5 L760.4218337384068 120.5 A15 15 0 0 1 760.4218337384068 89.5">
  <animateTransform begin="-3.5999999999999996s" values="0;0" keyTimes="0;1" repeatCount="indefinite" dur="5s" type="translate" attributeName="transform"></animateTransform>
  <animate begin="-3.5999999999999996s" values="1;1;0" keyTimes="0;0.3;1" repeatCount="indefinite" dur="5s" attributeName="opacity"></animate>
</path><path fill="#fff" d="M1770 119.5 L719.5695563080076 119.5 A15 15 0 0 1 719.5695563080076 150.5 L1770 150.5">
  <animateTransform begin="-4.8s" values="33.51521869584072;0;33.51521869584072" keySplines="0.5 0 0.5 1;0.5 0 0.5 1" calcMode="spline" keyTimes="0;0.5;1" repeatCount="indefinite" dur="3.3333333333333335s" type="translate" attributeName="transform"></animateTransform>
</path><path fill="#000" d="M1530.1419831491091 119.5 L1560.2839662982183 119.5 A15 15 0 0 1 1560.2839662982183 150.5 L1530.1419831491091 150.5 A15 15 0 0 1 1530.1419831491091 119.5">
  <animateTransform begin="-4.8s" values="0;-1574.934111602526" keyTimes="0;1" repeatCount="indefinite" dur="5s" type="translate" attributeName="transform"></animateTransform>
  <animate begin="-4.8s" values="1;1;0" keyTimes="0;0.3;1" repeatCount="indefinite" dur="5s" attributeName="opacity"></animate>
</path><path fill="#fff" d="M1770 149.5 L679.3409640978152 149.5 A15 15 0 0 0 679.3409640978152 180.5 L1770 180.5">
  <animateTransform begin="-6.000000000000001s" values="-37.65788562815343;0;-37.65788562815343" keySplines="0.5 0 0.5 1;0.5 0 0.5 1" calcMode="spline" keyTimes="0;0.5;1" repeatCount="indefinite" dur="5s" type="translate" attributeName="transform"></animateTransform>
</path><path fill="#fff" d="M738.4359916043611 149.5 L752.778090024752 149.5 A15 15 0 0 1 752.778090024752 180.5 L738.4359916043611 180.5 A15 15 0 0 1 738.4359916043611 149.5">
  <animateTransform begin="-6.000000000000001s" values="0;0" keyTimes="0;1" repeatCount="indefinite" dur="10s" type="translate" attributeName="transform"></animateTransform>
  <animate begin="-6.000000000000001s" values="1;1;0" keyTimes="0;0.3;1" repeatCount="indefinite" dur="10s" attributeName="opacity"></animate>
</path><path fill="#fff" d="M1770 179.5 L700.8503660752349 179.5 A15 15 0 0 1 700.8503660752349 210.5 L1770 210.5">
  <animateTransform begin="-7.199999999999999s" values="46.95191832163358;0;46.95191832163358" keySplines="0.5 0 0.5 1;0.5 0 0.5 1" calcMode="spline" keyTimes="0;0.5;1" repeatCount="indefinite" dur="10s" type="translate" attributeName="transform"></animateTransform>
</path><path fill="#000" d="M1510.443436836097 179.5 L1520.8868736721938 179.5 A15 15 0 0 1 1520.8868736721938 210.5 L1510.443436836097 210.5 A15 15 0 0 1 1510.443436836097 179.5">
  <animateTransform begin="-7.199999999999999s" values="0;-1115.6364330407598" keyTimes="0;1" repeatCount="indefinite" dur="3.3333333333333335s" type="translate" attributeName="transform"></animateTransform>
  <animate begin="-7.199999999999999s" values="1;1;0" keyTimes="0;0.3;1" repeatCount="indefinite" dur="3.3333333333333335s" attributeName="opacity"></animate>
</path><path fill="#fff" d="M1770 209.5 L637.1242682443467 209.5 A15 15 0 0 0 637.1242682443467 240.5 L1770 240.5">
  <animateTransform begin="-8.4s" values="-30.637810760264323;0;-30.637810760264323" keySplines="0.5 0 0.5 1;0.5 0 0.5 1" calcMode="spline" keyTimes="0;0.5;1" repeatCount="indefinite" dur="10s" type="translate" attributeName="transform"></animateTransform>
</path><path fill="#fff" d="M764.8889091144376 209.5 L791.1003931877716 209.5 A15 15 0 0 1 791.1003931877716 240.5 L764.8889091144376 240.5 A15 15 0 0 1 764.8889091144376 209.5">
  <animateTransform begin="-8.4s" values="0;0" keyTimes="0;1" repeatCount="indefinite" dur="5s" type="translate" attributeName="transform"></animateTransform>
  <animate begin="-8.4s" values="1;1;0" keyTimes="0;0.3;1" repeatCount="indefinite" dur="5s" attributeName="opacity"></animate>
</path><path fill="#fff" d="M1770 239.5 L664.843395491305 239.5 A15 15 0 0 1 664.843395491305 270.5 L1770 270.5">
  <animateTransform begin="-9.6s" values="43.59187766380118;0;43.59187766380118" keySplines="0.5 0 0.5 1;0.5 0 0.5 1" calcMode="spline" keyTimes="0;0.5;1" repeatCount="indefinite" dur="10s" type="translate" attributeName="transform"></animateTransform>
</path><path fill="#000" d="M1512.275251789866 239.5 L1524.5505035797319 239.5 A15 15 0 0 1 1524.5505035797319 270.5 L1512.275251789866 270.5 A15 15 0 0 1 1512.275251789866 239.5">
  <animateTransform begin="-9.6s" values="0;-1414.461324689682" keyTimes="0;1" repeatCount="indefinite" dur="3.3333333333333335s" type="translate" attributeName="transform"></animateTransform>
  <animate begin="-9.6s" values="1;1;0" keyTimes="0;0.3;1" repeatCount="indefinite" dur="3.3333333333333335s" attributeName="opacity"></animate>
</path><path fill="#fff" d="M1770 269.5 L633.3534752675893 269.5 A15 15 0 0 0 633.3534752675893 300.5 L1770 300.5">
  <animateTransform begin="-10.8s" values="-37.963903084675174;0;-37.963903084675174" keySplines="0.5 0 0.5 1;0.5 0 0.5 1" calcMode="spline" keyTimes="0;0.5;1" repeatCount="indefinite" dur="3.3333333333333335s" type="translate" attributeName="transform"></animateTransform>
</path><path fill="#fff" d="M777.9312251478435 269.5 L796.8255115457879 269.5 A15 15 0 0 1 796.8255115457879 300.5 L777.9312251478435 300.5 A15 15 0 0 1 777.9312251478435 269.5">
  <animateTransform begin="-10.8s" values="0;0" keyTimes="0;1" repeatCount="indefinite" dur="5s" type="translate" attributeName="transform"></animateTransform>
  <animate begin="-10.8s" values="1;1;0" keyTimes="0;0.3;1" repeatCount="indefinite" dur="5s" attributeName="opacity"></animate>
</path><path fill="#fff" d="M1770 299.5 L713.3036083530258 299.5 A15 15 0 0 1 713.3036083530258 330.5 L1770 330.5">
  <animateTransform begin="-12.000000000000002s" values="31.65639138985632;0;31.65639138985632" keySplines="0.5 0 0.5 1;0.5 0 0.5 1" calcMode="spline" keyTimes="0;0.5;1" repeatCount="indefinite" dur="10s" type="translate" attributeName="transform"></animateTransform>
</path><path fill="#000" d="M1517.2318777116782 299.5 L1534.4637554233564 299.5 A15 15 0 0 1 1534.4637554233564 330.5 L1517.2318777116782 330.5 A15 15 0 0 1 1517.2318777116782 299.5">
  <animateTransform begin="-12.000000000000002s" values="0;-1458.5540120458763" keyTimes="0;1" repeatCount="indefinite" dur="3.3333333333333335s" type="translate" attributeName="transform"></animateTransform>
  <animate begin="-12.000000000000002s" values="1;1;0" keyTimes="0;0.3;1" repeatCount="indefinite" dur="3.3333333333333335s" attributeName="opacity"></animate>
</path><path fill="#fff" d="M1770 329.5 L679.1345010380135 329.5 A15 15 0 0 0 679.1345010380135 360.5 L1770 360.5">
  <animateTransform begin="-13.200000000000001s" values="-40.26150483190369;0;-40.26150483190369" keySplines="0.5 0 0.5 1;0.5 0 0.5 1" calcMode="spline" keyTimes="0;0.5;1" repeatCount="indefinite" dur="10s" type="translate" attributeName="transform"></animateTransform>
</path><path fill="#fff" d="M790.1750671231325 329.5 L810.588945622715 329.5 A15 15 0 0 1 810.588945622715 360.5 L790.1750671231325 360.5 A15 15 0 0 1 790.1750671231325 329.5">
  <animateTransform begin="-13.200000000000001s" values="0;0" keyTimes="0;1" repeatCount="indefinite" dur="5s" type="translate" attributeName="transform"></animateTransform>
  <animate begin="-13.200000000000001s" values="1;1;0" keyTimes="0;0.3;1" repeatCount="indefinite" dur="5s" attributeName="opacity"></animate>
</path><path fill="#fff" d="M1770 359.5 L735.210062696541 359.5 A15 15 0 0 1 735.210062696541 390.5 L1770 390.5">
  <animateTransform begin="-14.399999999999999s" values="32.23662148858804;0;32.23662148858804" keySplines="0.5 0 0.5 1;0.5 0 0.5 1" calcMode="spline" keyTimes="0;0.5;1" repeatCount="indefinite" dur="10s" type="translate" attributeName="transform"></animateTransform>
</path><path fill="#000" d="M1518.3757017991952 359.5 L1536.7514035983904 359.5 A15 15 0 0 1 1536.7514035983904 390.5 L1518.3757017991952 390.5 A15 15 0 0 1 1518.3757017991952 359.5">
  <animateTransform begin="-14.399999999999999s" values="0;-1484.588914001192" keyTimes="0;1" repeatCount="indefinite" dur="5s" type="translate" attributeName="transform"></animateTransform>
  <animate begin="-14.399999999999999s" values="1;1;0" keyTimes="0;0.3;1" repeatCount="indefinite" dur="5s" attributeName="opacity"></animate>
</path><path fill="#fff" d="M1770 389.5 L722.6914894535158 389.5 A15 15 0 0 0 722.6914894535158 420.5 L1770 420.5">
  <animateTransform begin="-15.600000000000001s" values="-35.17559109898466;0;-35.17559109898466" keySplines="0.5 0 0.5 1;0.5 0 0.5 1" calcMode="spline" keyTimes="0;0.5;1" repeatCount="indefinite" dur="5s" type="translate" attributeName="transform"></animateTransform>
</path><path fill="#fff" d="M781.6295981679885 389.5 L796.8551810023056 389.5 A15 15 0 0 1 796.8551810023056 420.5 L781.6295981679885 420.5 A15 15 0 0 1 781.6295981679885 389.5">
  <animateTransform begin="-15.600000000000001s" values="0;0" keyTimes="0;1" repeatCount="indefinite" dur="10s" type="translate" attributeName="transform"></animateTransform>
  <animate begin="-15.600000000000001s" values="1;1;0" keyTimes="0;0.3;1" repeatCount="indefinite" dur="10s" attributeName="opacity"></animate>
</path><path fill="#fff" d="M1770 419.5 L752.8194487607353 419.5 A15 15 0 0 1 752.8194487607353 450.5 L1770 450.5">
  <animateTransform begin="-16.8s" values="47.48201566789208;0;47.48201566789208" keySplines="0.5 0 0.5 1;0.5 0 0.5 1" calcMode="spline" keyTimes="0;0.5;1" repeatCount="indefinite" dur="10s" type="translate" attributeName="transform"></animateTransform>
</path><path fill="#000" d="M1525.4962468170704 419.5 L1550.9924936341408 419.5 A15 15 0 0 1 1550.9924936341408 450.5 L1525.4962468170704 450.5 A15 15 0 0 1 1525.4962468170704 419.5">
  <animateTransform begin="-16.8s" values="0;-1164.0808567667439" keyTimes="0;1" repeatCount="indefinite" dur="3.3333333333333335s" type="translate" attributeName="transform"></animateTransform>
  <animate begin="-16.8s" values="1;1;0" keyTimes="0;0.3;1" repeatCount="indefinite" dur="3.3333333333333335s" attributeName="opacity"></animate>
</path><path fill="#fff" d="M1770 449.5 L689.07407137081 449.5 A15 15 0 0 0 689.07407137081 480.5 L1770 480.5">
  <animateTransform begin="-18s" values="-31.645905203619982;0;-31.645905203619982" keySplines="0.5 0 0.5 1;0.5 0 0.5 1" calcMode="spline" keyTimes="0;0.5;1" repeatCount="indefinite" dur="3.3333333333333335s" type="translate" attributeName="transform"></animateTransform>
</path><path fill="#fff" d="M822.4837167220545 449.5 L846.2427560284335 449.5 A15 15 0 0 1 846.2427560284335 480.5 L822.4837167220545 480.5 A15 15 0 0 1 822.4837167220545 449.5">
  <animateTransform begin="-18s" values="0;0" keyTimes="0;1" repeatCount="indefinite" dur="10s" type="translate" attributeName="transform"></animateTransform>
  <animate begin="-18s" values="1;1;0" keyTimes="0;0.3;1" repeatCount="indefinite" dur="10s" attributeName="opacity"></animate>
</path><path fill="#fff" d="M1770 479.5 L760.5781485220791 479.5 A15 15 0 0 1 760.5781485220791 510.5 L1770 510.5">
  <animateTransform begin="-19.2s" values="39.63375509265528;0;39.63375509265528" keySplines="0.5 0 0.5 1;0.5 0 0.5 1" calcMode="spline" keyTimes="0;0.5;1" repeatCount="indefinite" dur="3.3333333333333335s" type="translate" attributeName="transform"></animateTransform>
</path><path fill="#000" d="M1516.071142580215 479.5 L1532.1422851604302 479.5 A15 15 0 0 1 1532.1422851604302 510.5 L1516.071142580215 510.5 A15 15 0 0 1 1516.071142580215 479.5">
  <animateTransform begin="-19.2s" values="0;-1815.0970908013178" keyTimes="0;1" repeatCount="indefinite" dur="3.3333333333333335s" type="translate" attributeName="transform"></animateTransform>
  <animate begin="-19.2s" values="1;1;0" keyTimes="0;0.3;1" repeatCount="indefinite" dur="3.3333333333333335s" attributeName="opacity"></animate>
</path><path fill="#fff" d="M1770 509.5 L700.2149834823874 509.5 A15 15 0 0 0 700.2149834823874 540.5 L1770 540.5">
  <animateTransform begin="-20.4s" values="-48.69793289122151;0;-48.69793289122151" keySplines="0.5 0 0.5 1;0.5 0 0.5 1" calcMode="spline" keyTimes="0;0.5;1" repeatCount="indefinite" dur="5s" type="translate" attributeName="transform"></animateTransform>
</path><path fill="#fff" d="M831.8942457223052 509.5 L855.5670802992745 509.5 A15 15 0 0 1 855.5670802992745 540.5 L831.8942457223052 540.5 A15 15 0 0 1 831.8942457223052 509.5">
  <animateTransform begin="-20.4s" values="0;0" keyTimes="0;1" repeatCount="indefinite" dur="5s" type="translate" attributeName="transform"></animateTransform>
  <animate begin="-20.4s" values="1;1;0" keyTimes="0;0.3;1" repeatCount="indefinite" dur="5s" attributeName="opacity"></animate>
</path><path fill="#fff" d="M1770 539.5 L760.6777337058338 539.5 A15 15 0 0 1 760.6777337058338 570.5 L1770 570.5">
  <animateTransform begin="-21.6s" values="33.70805256022699;0;33.70805256022699" keySplines="0.5 0 0.5 1;0.5 0 0.5 1" calcMode="spline" keyTimes="0;0.5;1" repeatCount="indefinite" dur="10s" type="translate" attributeName="transform"></animateTransform>
</path><path fill="#000" d="M1524.3551391459835 539.5 L1548.710278291967 539.5 A15 15 0 0 1 1548.710278291967 570.5 L1524.3551391459835 570.5 A15 15 0 0 1 1524.3551391459835 539.5">
  <animateTransform begin="-21.6s" values="0;-1422.953363357271" keyTimes="0;1" repeatCount="indefinite" dur="10s" type="translate" attributeName="transform"></animateTransform>
  <animate begin="-21.6s" values="1;1;0" keyTimes="0;0.3;1" repeatCount="indefinite" dur="10s" attributeName="opacity"></animate>
</path><path fill="#fff" d="M1770 569.5 L736.8884920630237 569.5 A15 15 0 0 0 736.8884920630237 600.5 L1770 600.5">
  <animateTransform begin="-22.800000000000004s" values="-36.05962914056211;0;-36.05962914056211" keySplines="0.5 0 0.5 1;0.5 0 0.5 1" calcMode="spline" keyTimes="0;0.5;1" repeatCount="indefinite" dur="5s" type="translate" attributeName="transform"></animateTransform>
</path><path fill="#fff" d="M814.6967249885492 569.5 L824.7396146830498 569.5 A15 15 0 0 1 824.7396146830498 600.5 L814.6967249885492 600.5 A15 15 0 0 1 814.6967249885492 569.5">
  <animateTransform begin="-22.800000000000004s" values="0;0" keyTimes="0;1" repeatCount="indefinite" dur="3.3333333333333335s" type="translate" attributeName="transform"></animateTransform>
  <animate begin="-22.800000000000004s" values="1;1;0" keyTimes="0;0.3;1" repeatCount="indefinite" dur="3.3333333333333335s" attributeName="opacity"></animate>
</path><path fill="#fff" d="M1770 599.5 L762.0180051929277 599.5 A15 15 0 0 1 762.0180051929277 630.5 L1770 630.5">
  <animateTransform begin="-24.000000000000004s" values="36.214372784904626;0;36.214372784904626" keySplines="0.5 0 0.5 1;0.5 0 0.5 1" calcMode="spline" keyTimes="0;0.5;1" repeatCount="indefinite" dur="10s" type="translate" attributeName="transform"></animateTransform>
</path><path fill="#000" d="M1533.539568903455 599.5 L1567.0791378069098 599.5 A15 15 0 0 1 1567.0791378069098 630.5 L1533.539568903455 630.5 A15 15 0 0 1 1533.539568903455 599.5">
  <animateTransform begin="-24.000000000000004s" values="0;-1237.0629174316393" keyTimes="0;1" repeatCount="indefinite" dur="10s" type="translate" attributeName="transform"></animateTransform>
  <animate begin="-24.000000000000004s" values="1;1;0" keyTimes="0;0.3;1" repeatCount="indefinite" dur="10s" attributeName="opacity"></animate>
</path><path fill="#fff" d="M1770 629.5 L711.7471564455734 629.5 A15 15 0 0 0 711.7471564455734 660.5 L1770 660.5">
  <animateTransform begin="-25.2s" values="-33.568453249133974;0;-33.568453249133974" keySplines="0.5 0 0.5 1;0.5 0 0.5 1" calcMode="spline" keyTimes="0;0.5;1" repeatCount="indefinite" dur="3.3333333333333335s" type="translate" attributeName="transform"></animateTransform>
</path><path fill="#fff" d="M806.0351650436655 629.5 L828.1613221398756 629.5 A15 15 0 0 1 828.1613221398756 660.5 L806.0351650436655 660.5 A15 15 0 0 1 806.0351650436655 629.5">
  <animateTransform begin="-25.2s" values="0;0" keyTimes="0;1" repeatCount="indefinite" dur="3.3333333333333335s" type="translate" attributeName="transform"></animateTransform>
  <animate begin="-25.2s" values="1;1;0" keyTimes="0;0.3;1" repeatCount="indefinite" dur="3.3333333333333335s" attributeName="opacity"></animate>
</path><path fill="#fff" d="M1770 659.5 L738.8137449001403 659.5 A15 15 0 0 1 738.8137449001403 690.5 L1770 690.5">
  <animateTransform begin="-26.400000000000002s" values="48.945258651952884;0;48.945258651952884" keySplines="0.5 0 0.5 1;0.5 0 0.5 1" calcMode="spline" keyTimes="0;0.5;1" repeatCount="indefinite" dur="10s" type="translate" attributeName="transform"></animateTransform>
</path><path fill="#000" d="M1528.061103350779 659.5 L1556.1222067015578 659.5 A15 15 0 0 1 1556.1222067015578 690.5 L1528.061103350779 690.5 A15 15 0 0 1 1528.061103350779 659.5">
  <animateTransform begin="-26.400000000000002s" values="0;-1247.5090802043949" keyTimes="0;1" repeatCount="indefinite" dur="10s" type="translate" attributeName="transform"></animateTransform>
  <animate begin="-26.400000000000002s" values="1;1;0" keyTimes="0;0.3;1" repeatCount="indefinite" dur="10s" attributeName="opacity"></animate>
</path><path fill="#fff" d="M1770 689.5 L722.0893563092949 689.5 A15 15 0 0 0 722.0893563092949 720.5 L1770 720.5">
  <animateTransform begin="-27.6s" values="-45.29248023093248;0;-45.29248023093248" keySplines="0.5 0 0.5 1;0.5 0 0.5 1" calcMode="spline" keyTimes="0;0.5;1" repeatCount="indefinite" dur="3.3333333333333335s" type="translate" attributeName="transform"></animateTransform>
</path><path fill="#fff" d="M806.209775853354 689.5 L832.07043285105 689.5 A15 15 0 0 1 832.07043285105 720.5 L806.209775853354 720.5 A15 15 0 0 1 806.209775853354 689.5">
  <animateTransform begin="-27.6s" values="0;0" keyTimes="0;1" repeatCount="indefinite" dur="3.3333333333333335s" type="translate" attributeName="transform"></animateTransform>
  <animate begin="-27.6s" values="1;1;0" keyTimes="0;0.3;1" repeatCount="indefinite" dur="3.3333333333333335s" attributeName="opacity"></animate>
</path><path fill="#fff" d="M1770 719.5 L727.6193592505269 719.5 A15 15 0 0 1 727.6193592505269 750.5 L1770 750.5">
  <animateTransform begin="-28.799999999999997s" values="48.10851174299399;0;48.10851174299399" keySplines="0.5 0 0.5 1;0.5 0 0.5 1" calcMode="spline" keyTimes="0;0.5;1" repeatCount="indefinite" dur="3.3333333333333335s" type="translate" attributeName="transform"></animateTransform>
</path><path fill="#000" d="M1532.6305609037481 719.5 L1565.2611218074962 719.5 A15 15 0 0 1 1565.2611218074962 750.5 L1532.6305609037481 750.5 A15 15 0 0 1 1532.6305609037481 719.5">
  <animateTransform begin="-28.799999999999997s" values="0;-1781.8810856142213" keyTimes="0;1" repeatCount="indefinite" dur="10s" type="translate" attributeName="transform"></animateTransform>
  <animate begin="-28.799999999999997s" values="1;1;0" keyTimes="0;0.3;1" repeatCount="indefinite" dur="10s" attributeName="opacity"></animate>
</path>    </g>
  </mask>
</defs>
<rect mask="url(#ldbk-photon-w7hskvu9pc-mask)" fill="url(#ldbk-photon-w7hskvu9pc-lg)" height="745" width="1470" y="0" x="0"></rect><g></g></g><!-- [ldio] generated by https://loading.io --></svg>